<svg xmlns="http://www.w3.org/2000/svg" xmlns:xlink="http://www.w3.org/1999/xlink" xmlns:lucid="lucid" width="239" height="234"><g transform="translate(-538 -33)" lucid:page-tab-id="0_0"><g filter="url(#a)"><path d="M629.53 78.77a6 6 0 0 1 6-6h43.6a6 6 0 0 1 6 6v23.87a6 6 0 0 1-6 6h-43.6a6 6 0 0 1-6-6z" stroke="#3a414a" fill="#fcfcca"/><use xlink:href="#b" transform="matrix(1,0,0,1,634.5279966761523,77.76884207627371) translate(3.6388888888888964 15.999999999999995)"/></g><g filter="url(#c)"><path d="M577.33 108.67a6 6 0 0 1 6-6h148a6 6 0 0 1 6 6v108a6 6 0 0 1-6 6h-148a6 6 0 0 1-6-6z" stroke="#3a414a" fill="#ced4db"/><use xlink:href="#d" transform="matrix(1,0,0,1,589.3333333333721,114.66666666662786) translate(30.660590277777793 57.882812499999986)"/></g><defs><path fill="#3a414a" d="M135-150c-39-12-60 13-60 57V0H25l-1-190h47c2 13-1 29 3 40 6-28 27-53 61-41v41" id="e"/><path fill="#3a414a" d="M110-194c64 0 96 36 96 99 0 64-35 99-97 99-61 0-95-36-95-99 0-62 34-99 96-99zm-1 164c35 0 45-28 45-65 0-40-10-65-43-65-34 0-45 26-45 65 0 36 10 65 43 65" id="f"/><path fill="#3a414a" d="M115-3C79 11 28 4 28-45v-112H4v-33h27l15-45h31v45h36v33H77v99c-1 23 16 31 38 25v30" id="g"/><g id="b"><use transform="matrix(0.05555555555555554,0,0,0.05555555555555554,0,0)" xlink:href="#e"/><use transform="matrix(0.05555555555555554,0,0,0.05555555555555554,7.777777777777775,0)" xlink:href="#f"/><use transform="matrix(0.05555555555555554,0,0,0.05555555555555554,19.944444444444436,0)" xlink:href="#f"/><use transform="matrix(0.05555555555555554,0,0,0.05555555555555554,32.1111111111111,0)" xlink:href="#g"/></g><filter id="a" filterUnits="objectBoundingBox" x="-.18" y="-.11" width="1.36" height="1.56"><feOffset result="offOut" in="SourceAlpha" dy="6"/><feGaussianBlur result="blurOut" in="offOut" stdDeviation="5"/><feColorMatrix result="colorOut" in="blurOut" values="0 0 0 0 0 0 0 0 0 0 0 0 0 0 0 0 0 0 0.5019607843137255 0"/><feBlend in="SourceGraphic" in2="colorOut"/></filter><path fill="#3a414a" d="M706-1102c241 0 344 136 343 381V0H868v-695c1-168-57-273-220-268-190 6-283 138-283 336V0H185c-3-360 6-732-6-1082h170c4 54 7 126 8 185h3c63-121 164-204 346-205" id="h"/><path fill="#3a414a" d="M528 20c-247 0-343-132-343-381v-721h180v686c-4 177 45 284 224 277 194-8 279-136 279-336v-627h181c3 360-6 732 6 1082H885c-4-54-7-126-8-185h-3C809-64 714 20 528 20" id="i"/><path fill="#3a414a" d="M736-142h380V0H134v-142h422v-1200H267v-142h469v1342" id="j"/><g id="d"><use transform="matrix(0.015190972222222215,0,0,0.015190972222222215,0,0)" xlink:href="#h"/><use transform="matrix(0.015190972222222215,0,0,0.015190972222222215,18.669704861111104,0)" xlink:href="#i"/><use transform="matrix(0.015190972222222215,0,0,0.015190972222222215,37.33940972222221,0)" xlink:href="#j"/><use transform="matrix(0.015190972222222215,0,0,0.015190972222222215,56.009114583333314,0)" xlink:href="#j"/></g><filter id="c" filterUnits="objectBoundingBox" x="-.06" y="-.03" width="1.13" height="1.17"><feOffset result="offOut" in="SourceAlpha" dy="6"/><feGaussianBlur result="blurOut" in="offOut" stdDeviation="5"/><feColorMatrix result="colorOut" in="blurOut" values="0 0 0 0 0 0 0 0 0 0 0 0 0 0 0 0 0 0 0.5019607843137255 0"/><feBlend in="SourceGraphic" in2="colorOut"/></filter></defs></g></svg>