<svg xmlns="http://www.w3.org/2000/svg" xmlns:xlink="http://www.w3.org/1999/xlink" xmlns:lucid="lucid" width="397.13" height="391.43"><g transform="translate(-360.20561218783564 -321.0989055643377)" lucid:page-tab-id="0_0"><g filter="url(#a)"><path d="M563.55 348.1a6 6 0 0 1 6-6h43.6a6 6 0 0 1 6 6v27a6 6 0 0 1-6 6h-43.6a6 6 0 0 1-6-6z" stroke="#3a414a" fill="#fcfcca"/><use xlink:href="#b" transform="matrix(1,0,0,1,568.5537451277579,347.0989055643377) translate(3.6388888888888964 15.999999999999995)"/></g><g filter="url(#c)"><path d="M511.36 399.5a6 6 0 0 1 6-6h148a6 6 0 0 1 6 6v80.9a6 6 0 0 1-6 6h-148a6 6 0 0 1-6-6z" stroke="#3a414a" fill="#e3fae3"/><use xlink:href="#d" transform="matrix(1,0,0,1,523.3590817849775,405.49828231606205) translate(21.32573784722223 36.753694249999995)"/><use xlink:href="#e" transform="matrix(1,0,0,1,523.3590817849775,405.49828231606205) translate(77.33485243055556 36.753694249999995)"/><use xlink:href="#f" transform="matrix(1,0,0,1,523.3590817849775,405.49828231606205) translate(68 46.97721855555555)"/><use xlink:href="#g" transform="matrix(1,0,0,1,523.3590817849775,405.49828231606205) translate(52.47222222222223 64.75673244444444)"/></g><g filter="url(#h)"><path d="M511.36 375.55a6 6 0 0 1 6-6h148a6 6 0 0 1 6 6v36.85a6 6 0 0 1-6 6h-148a6 6 0 0 1-6-6z" stroke="#3a414a" fill="#edf5ff"/><use xlink:href="#i" transform="matrix(1,0,0,1,523.3590817849777,381.55049325082206) translate(28.709876543209873 19.34027777777778)"/></g><path d="M499.25 387.1a6 6 0 0 1 6-6h11.93a6 6 0 0 1 6 6v12.44a6 6 0 0 1-6 6h-11.93a6 6 0 0 1-6-6z" stroke="#3a414a" fill="#edf5ff"/><use xlink:href="#j" transform="matrix(1,0,0,1,504.2481859030145,386.09038259052886) translate(1.8148148148148158 12.444444444444443)"/><path d="M499.25 434.6a6 6 0 0 1 6-6h11.93a6 6 0 0 1 6 6v12.46a6 6 0 0 1-6 6h-11.93a6 6 0 0 1-6-6z" stroke="#3a414a" fill="#e3fae3"/><use xlink:href="#k" transform="matrix(1,0,0,1,504.2481859030146,433.6108969772657) translate(1.8148148148148158 12.444444444444443)"/><path d="M647.43 468.47a6 6 0 0 1 6-6h11.93a6 6 0 0 1 6 6v11.92a6 6 0 0 1-6 6h-11.93a6 6 0 0 1-6-6z" stroke="#3a414a" fill="#4c535d"/><path d="M725.97 511.05c6.28 0 11.36 5.5 11.36 12.26 0 6.78-5.08 12.26-11.36 12.26H691.9c-6.3 0-11.38-5.48-11.38-12.25 0-6.76 5.1-12.25 11.37-12.25z" stroke="#3a414a" fill="#fff"/><use xlink:href="#l" transform="matrix(1,0,0,1,685.523665666386,516.0547293309729) translate(13.166666666666671 12.541666666666664)"/><path d="M709.93 492.05h-2l-.03-38.08h2zm-5.9-99l1.06.26 1 .44.94.57.84.72.7.84.6.94.4 1 .27 1.12.03 33.72h-2l-.03-33.48-.17-.73-.3-.72-.4-.66-.52-.6-.6-.5-.66-.42-.73-.3-.76-.18-.8-.06H672.8v-2h30.15z" stroke="#6db1ff" stroke-width=".05" fill="#6db1ff"/><path d="M672.85 394.98h-1.03v-2h1.03z" fill="#6db1ff"/><path d="M672.87 395h-1.07v-2.05h1.07zm-1.02-2v1.95h.97V393z" stroke="#6db1ff" stroke-width=".05" fill="#6db1ff"/><path d="M708.93 507.32l-4.64-14.27h9.26z" fill="#6db1ff"/><path d="M708.93 510.55l-6-18.5h12zm-3.26-16.5l3.26 10.03 3.26-10.03z" stroke="#6db1ff" stroke-width=".05" fill="#6db1ff"/><use xlink:href="#m" transform="matrix(1,0,0,1,689.2494871542001,432.639001035961) translate(0 14.222222222222223)"/><path d="M473.32 555.73h-2l.03-61.58h2zm24.46-161.4h-19.42l-.83.05-.76.18-.72.3-.67.4-.6.52-.5.6-.42.67-.3.72-.17.73-.04 74.32h-2l.03-74.56.26-1.1.42-1.02.57-.94.7-.84.85-.7.94-.58 1-.43 1.08-.25 1.06-.08h19.5z" stroke="#6db1ff" stroke-width=".05" fill="#6db1ff"/><path d="M498.8 394.32h-1.04v-2h1.02z" fill="#6db1ff"/><path d="M498.8 394.34h-1.07v-2.05h1.07zm-1.02-2v1.95h.98v-1.96z" stroke="#6db1ff" stroke-width=".05" fill="#6db1ff"/><path d="M472.32 571l-4.64-14.27h9.27z" fill="#6db1ff"/><path d="M472.32 574.23l-6.02-18.5h12.03zm-3.26-16.5l3.26 10.03 3.26-10.03z" stroke="#6db1ff" stroke-width=".05" fill="#6db1ff"/><use xlink:href="#n" transform="matrix(1,0,0,1,459.0325574525149,472.82045758991273) translate(0 14.222222222222223)"/><g filter="url(#o)"><path d="M392.32 601.1a6 6 0 0 1 6-6h148a6 6 0 0 1 6 6v84.43a6 6 0 0 1-6 6h-148a6 6 0 0 1-6-6z" stroke="#3a414a" fill="#e3fae3"/><use xlink:href="#d" transform="matrix(1,0,0,1,404.3165080697987,607.0893220149662) translate(21.32573784722223 43.33500625)"/><use xlink:href="#e" transform="matrix(1,0,0,1,404.3165080697987,607.0893220149662) translate(77.33485243055556 43.33500625)"/><use xlink:href="#f" transform="matrix(1,0,0,1,404.3165080697987,607.0893220149662) translate(68 53.55853055555555)"/><use xlink:href="#p" transform="matrix(1,0,0,1,404.3165080697987,607.0893220149662) translate(1.9012345679012412 69.56026666666666)"/><use xlink:href="#q" transform="matrix(1,0,0,1,404.3165080697987,607.0893220149662) translate(47.28395061728395 69.56026666666666)"/></g><g filter="url(#h)"><path d="M392.32 580.7a6 6 0 0 1 6-6h148a6 6 0 0 1 6 6v36.85a6 6 0 0 1-6 6h-148a6 6 0 0 1-6-6z" stroke="#3a414a" fill="#edf5ff"/><use xlink:href="#r" transform="matrix(1,0,0,1,404.31650806979883,586.6970885052817) translate(34.04938271604938 19.34027777777778)"/></g><path d="M380.2 592.24a6 6 0 0 1 6-6h11.94a6 6 0 0 1 6 6v12.45a6 6 0 0 1-6 6H386.2a6 6 0 0 1-6-6z" stroke="#3a414a" fill="#edf5ff"/><use xlink:href="#j" transform="matrix(1,0,0,1,385.20561218783564,591.2369778449886) translate(1.8148148148148158 12.444444444444443)"/><path d="M380.2 639.76a6 6 0 0 1 6-6h11.94a6 6 0 0 1 6 6v12.45a6 6 0 0 1-6 6H386.2a6 6 0 0 1-6-6z" stroke="#3a414a" fill="#e3fae3"/><use xlink:href="#k" transform="matrix(1,0,0,1,385.20561218783575,638.7574922317255) translate(1.8148148148148158 12.444444444444443)"/><path d="M528.4 673.6a6 6 0 0 1 6-6h11.92a6 6 0 0 1 6 6v11.93a6 6 0 0 1-6 6H534.4a6 6 0 0 1-6-6z" stroke="#3a414a" fill="#ff8f8f"/><defs><path fill="#3a414a" d="M135-150c-39-12-60 13-60 57V0H25l-1-190h47c2 13-1 29 3 40 6-28 27-53 61-41v41" id="s"/><path fill="#3a414a" d="M110-194c64 0 96 36 96 99 0 64-35 99-97 99-61 0-95-36-95-99 0-62 34-99 96-99zm-1 164c35 0 45-28 45-65 0-40-10-65-43-65-34 0-45 26-45 65 0 36 10 65 43 65" id="t"/><path fill="#3a414a" d="M115-3C79 11 28 4 28-45v-112H4v-33h27l15-45h31v45h36v33H77v99c-1 23 16 31 38 25v30" id="u"/><g id="b"><use transform="matrix(0.05555555555555554,0,0,0.05555555555555554,0,0)" xlink:href="#s"/><use transform="matrix(0.05555555555555554,0,0,0.05555555555555554,7.777777777777775,0)" xlink:href="#t"/><use transform="matrix(0.05555555555555554,0,0,0.05555555555555554,19.944444444444436,0)" xlink:href="#t"/><use transform="matrix(0.05555555555555554,0,0,0.05555555555555554,32.1111111111111,0)" xlink:href="#u"/></g><filter id="a" filterUnits="objectBoundingBox" x="-.18" y="-.1" width="1.36" height="1.51"><feOffset result="offOut" in="SourceAlpha" dy="6"/><feGaussianBlur result="blurOut" in="offOut" stdDeviation="5"/><feColorMatrix result="colorOut" in="blurOut" values="0 0 0 0 0 0 0 0 0 0 0 0 0 0 0 0 0 0 0.5019607843137255 0"/><feBlend in="SourceGraphic" in2="colorOut"/></filter><path fill="#3a414a" d="M631 20c-350 0-501-215-501-562 0-355 162-560 502-560 250 0 399 118 446 323l-192 14c-23-124-109-196-262-196-242 0-305 171-305 415 1 245 61 427 304 427 151 0 248-77 267-215l190 12C1039-107 883 20 631 20" id="v"/><path fill="#3a414a" d="M736-142h380V0H134v-142h422v-1200H267v-142h469v1342" id="w"/><path fill="#3a414a" d="M1000-272c3 95 12 159 101 161 21 0 41-3 59-7V-6c-44 10-86 16-139 16-141 2-191-84-197-217h-6C748-76 648 20 446 20c-207 0-318-120-318-322 0-266 194-348 454-354l236-4c12-191-40-305-222-305-140 0-220 47-232 172l-188-17c33-204 181-292 423-292 255 0 401 118 401 364v466zm-683-27c0 109 63 184 175 182 166-3 259-96 306-217 24-65 20-120 20-200-232 7-501-28-501 235" id="x"/><path fill="#3a414a" d="M873-819c-18-114-119-146-250-146-163 0-245 50-245 151 0 151 170 148 294 185 182 54 388 94 388 320 0 240-189 325-439 329-245 4-410-69-454-268l159-31c24 133 136 168 295 165 144-2 270-31 270-171 0-164-195-160-331-202-167-52-350-87-350-299 0-218 173-315 413-313 220 2 373 77 412 260" id="y"/><g id="d"><use transform="matrix(0.007595486111111109,0,0,0.007595486111111109,0,0)" xlink:href="#v"/><use transform="matrix(0.007595486111111109,0,0,0.007595486111111109,9.334852430555554,0)" xlink:href="#w"/><use transform="matrix(0.007595486111111109,0,0,0.007595486111111109,18.669704861111107,0)" xlink:href="#x"/><use transform="matrix(0.007595486111111109,0,0,0.007595486111111109,28.00455729166666,0)" xlink:href="#y"/><use transform="matrix(0.007595486111111109,0,0,0.007595486111111109,37.339409722222214,0)" xlink:href="#y"/></g><path fill="#3a414a" d="M650-1214c-281 0-336 244-336 533 0 295 60 546 347 546 188 0 263-142 322-282l159 65C1058-155 935 20 659 20c-401 0-546-295-546-701 0-407 135-689 536-689 264 0 391 146 466 335l-168 65c-47-129-127-244-297-244" id="z"/><path fill="#3a414a" d="M745-142h380V0H143v-142h422v-798H246v-142h499v940zM545-1292v-192h200v192H545" id="A"/><path fill="#3a414a" d="M682 16c-209 0-323-80-324-285v-671H190v-142h170l58-282h120v282h432v142H538v652c2 114 60 155 182 155 106 0 209-16 297-34v137C921-4 806 16 682 16" id="B"/><path fill="#3a414a" d="M168 279c222 39 310-114 368-290L66-1082h192c120 299 249 590 362 896 115-301 235-597 351-896h190L705 0c-65 164-130 320-275 396-67 36-177 35-262 18V279" id="C"/><g id="e"><use transform="matrix(0.007595486111111109,0,0,0.007595486111111109,0,0)" xlink:href="#z"/><use transform="matrix(0.007595486111111109,0,0,0.007595486111111109,9.334852430555554,0)" xlink:href="#A"/><use transform="matrix(0.007595486111111109,0,0,0.007595486111111109,18.669704861111107,0)" xlink:href="#B"/><use transform="matrix(0.007595486111111109,0,0,0.007595486111111109,28.00455729166666,0)" xlink:href="#C"/></g><path fill="#3a414a" d="M232-93c-1 65-40 97-104 97C67 4 28-28 28-90v-158h33c8 89-33 224 67 224 102 0 64-133 71-224h33v155" id="D"/><path fill="#3a414a" d="M101-234c-31-9-42 10-38 44h38v23H63V0H32v-167H5v-23h27c-7-52 17-82 69-68v24" id="E"/><path fill="#3a414a" d="M141-36C126-15 110 5 73 4 37 3 15-17 15-53c-1-64 63-63 125-63 3-35-9-54-41-54-24 1-41 7-42 31l-33-3c5-37 33-52 76-52 45 0 72 20 72 64v82c-1 20 7 32 28 27v20c-31 9-61-2-59-35zM48-53c0 20 12 33 32 33 41-3 63-29 60-74-43 2-92-5-92 41" id="F"/><g id="g"><use transform="matrix(0.055555555555555546,0,0,0.055555555555555546,0,0)" xlink:href="#D"/><use transform="matrix(0.055555555555555546,0,0,0.055555555555555546,14.388888888888886,0)" xlink:href="#E"/><use transform="matrix(0.055555555555555546,0,0,0.055555555555555546,19.94444444444444,0)" xlink:href="#F"/></g><filter id="c" filterUnits="objectBoundingBox" x="-.06" y="-.04" width="1.13" height="1.22"><feOffset result="offOut" in="SourceAlpha" dy="6"/><feGaussianBlur result="blurOut" in="offOut" stdDeviation="5"/><feColorMatrix result="colorOut" in="blurOut" values="0 0 0 0 0 0 0 0 0 0 0 0 0 0 0 0 0 0 0.5019607843137255 0"/><feBlend in="SourceGraphic" in2="colorOut"/></filter><path fill="#3a414a" d="M27 0v-27h64v-190l-56 39v-29l58-41h29v221h61V0H27" id="G"/><path fill="#3a414a" d="M110-160c48 1 74 30 74 79 0 53-28 85-80 85-65 0-83-55-86-122-5-90 50-162 133-122 14 7 22 21 27 39l-31 6c-5-40-67-38-82-6-9 19-15 44-15 74 11-20 30-34 60-33zm-7 138c34 0 49-23 49-58s-16-56-50-56c-29 0-50 16-49 49 1 36 15 65 50 65" id="H"/><path fill="#3a414a" d="M155-56V0h-30v-56H8v-25l114-167h33v167h35v25h-35zm-30-156c-27 46-58 90-88 131h88v-131" id="I"/><path fill="#3a414a" d="M33 0v-38h34V0H33" id="J"/><path fill="#3a414a" d="M99-251c64 0 84 50 84 122C183-37 130 33 47-8c-14-7-20-23-25-40l30-5c6 39 69 39 84 7 9-19 16-44 16-74-10 22-31 35-62 35-49 0-73-33-73-83 0-54 28-83 82-83zm-1 141c31-1 51-18 51-49 0-36-14-67-51-67-34 0-49 23-49 58 0 34 15 58 49 58" id="K"/><path fill="#3a414a" d="M64 0c3-98 48-159 88-221H18v-27h164v26C143-157 98-101 97 0H64" id="L"/><g id="i"><use transform="matrix(0.06172839506172839,0,0,0.06172839506172839,0,0)" xlink:href="#G"/><use transform="matrix(0.06172839506172839,0,0,0.06172839506172839,10.679012345679013,0)" xlink:href="#G"/><use transform="matrix(0.06172839506172839,0,0,0.06172839506172839,23.02469135802469,0)" xlink:href="#H"/><use transform="matrix(0.06172839506172839,0,0,0.06172839506172839,35.37037037037037,0)" xlink:href="#I"/><use transform="matrix(0.06172839506172839,0,0,0.06172839506172839,47.716049382716044,0)" xlink:href="#J"/><use transform="matrix(0.06172839506172839,0,0,0.06172839506172839,53.888888888888886,0)" xlink:href="#K"/><use transform="matrix(0.06172839506172839,0,0,0.06172839506172839,66.23456790123457,0)" xlink:href="#L"/></g><filter id="h" filterUnits="objectBoundingBox" x="-.06" y="-.16" width="1.13" height="1.41"><feOffset result="offOut" in="SourceAlpha" dy="2"/><feGaussianBlur result="blurOut" in="offOut" stdDeviation="5"/><feColorMatrix result="colorOut" in="blurOut" values="0 0 0 0 0 0 0 0 0 0 0 0 0 0 0 0 0 0 0.5019607843137255 0"/><feBlend in="SourceGraphic" in2="colorOut"/></filter><path fill="#3a414a" d="M194 0L95-120 63-95V0H30v-248h33v124l119-124h40L117-140 236 0h-42" id="M"/><use transform="matrix(0.04320987654320987,0,0,0.04320987654320987,0,0)" xlink:href="#M" id="j"/><path fill="#3a414a" d="M137 0h-34L2-248h35l83 218 83-218h36" id="N"/><use transform="matrix(0.04320987654320987,0,0,0.04320987654320987,0,0)" xlink:href="#N" id="k"/><path fill="#3a414a" d="M117-194c89-4 53 116 60 194h-32v-121c0-31-8-49-39-48C34-167 62-67 57 0H25l-1-190h30c1 10-1 24 2 32 11-22 29-35 61-36" id="O"/><path fill="#3a414a" d="M84 4C-5 8 30-112 23-190h32v120c0 31 7 50 39 49 72-2 45-101 50-169h31l1 190h-30c-1-10 1-25-2-33-11 22-28 36-60 37" id="P"/><path fill="#3a414a" d="M24 0v-261h32V0H24" id="Q"/><g id="l"><use transform="matrix(0.03703703703703702,0,0,0.03703703703703702,0,0)" xlink:href="#O"/><use transform="matrix(0.03703703703703702,0,0,0.03703703703703702,7.407407407407404,0)" xlink:href="#P"/><use transform="matrix(0.03703703703703702,0,0,0.03703703703703702,14.814814814814808,0)" xlink:href="#Q"/><use transform="matrix(0.03703703703703702,0,0,0.03703703703703702,17.740740740740733,0)" xlink:href="#Q"/></g><path fill="#6db1ff" d="M135-150c-39-12-60 13-60 57V0H25l-1-190h47c2 13-1 29 3 40 6-28 27-53 61-41v41" id="R"/><path fill="#6db1ff" d="M25-224v-37h50v37H25zM25 0v-190h50V0H25" id="S"/><path fill="#6db1ff" d="M195-6C206 82 75 100 31 46c-4-6-6-13-8-21l49-6c3 16 16 24 34 25 40 0 42-37 40-79-11 22-30 35-61 35-53 0-70-43-70-97 0-56 18-96 73-97 30 0 46 14 59 34l2-30h47zm-90-29c32 0 41-27 41-63 0-35-9-62-40-62-32 0-39 29-40 63 0 36 9 62 39 62" id="T"/><path fill="#6db1ff" d="M114-157C55-157 80-60 75 0H25v-261h50l-1 109c12-26 28-41 61-42 86-1 58 113 63 194h-50c-7-57 23-157-34-157" id="U"/><path fill="#6db1ff" d="M115-3C79 11 28 4 28-45v-112H4v-33h27l15-45h31v45h36v33H77v99c-1 23 16 31 38 25v30" id="V"/><g id="m"><use transform="matrix(0.04938271604938272,0,0,0.04938271604938272,0,0)" xlink:href="#R"/><use transform="matrix(0.04938271604938272,0,0,0.04938271604938272,6.913580246913581,0)" xlink:href="#S"/><use transform="matrix(0.04938271604938272,0,0,0.04938271604938272,11.851851851851853,0)" xlink:href="#T"/><use transform="matrix(0.04938271604938272,0,0,0.04938271604938272,22.666666666666668,0)" xlink:href="#U"/><use transform="matrix(0.04938271604938272,0,0,0.04938271604938272,33.48148148148148,0)" xlink:href="#V"/></g><path fill="#6db1ff" d="M25 0v-261h50V0H25" id="W"/><path fill="#6db1ff" d="M185-48c-13 30-37 53-82 52C43 2 14-33 14-96s30-98 90-98c62 0 83 45 84 108H66c0 31 8 55 39 56 18 0 30-7 34-22zm-45-69c5-46-57-63-70-21-2 6-4 13-4 21h74" id="X"/><path fill="#6db1ff" d="M121-226c-27-7-43 5-38 36h38v33H83V0H34v-157H6v-33h28c-9-59 32-81 87-68v32" id="Y"/><g id="n"><use transform="matrix(0.04938271604938272,0,0,0.04938271604938272,0,0)" xlink:href="#W"/><use transform="matrix(0.04938271604938272,0,0,0.04938271604938272,4.938271604938272,0)" xlink:href="#X"/><use transform="matrix(0.04938271604938272,0,0,0.04938271604938272,14.814814814814817,0)" xlink:href="#Y"/><use transform="matrix(0.04938271604938272,0,0,0.04938271604938272,20.69135802469136,0)" xlink:href="#V"/></g><path fill="#3a414a" d="M185-189c-5-48-123-54-124 2 14 75 158 14 163 119 3 78-121 87-175 55-17-10-28-26-33-46l33-7c5 56 141 63 141-1 0-78-155-14-162-118-5-82 145-84 179-34 5 7 8 16 11 25" id="Z"/><path fill="#3a414a" d="M24-231v-30h32v30H24zM24 0v-190h32V0H24" id="aa"/><path fill="#3a414a" d="M59-47c-2 24 18 29 38 22v24C64 9 27 4 27-40v-127H5v-23h24l9-43h21v43h35v23H59v120" id="ab"/><g id="p"><use transform="matrix(0.049382716049382706,0,0,0.049382716049382706,0,0)" xlink:href="#Z"/><use transform="matrix(0.049382716049382706,0,0,0.049382716049382706,11.85185185185185,0)" xlink:href="#F"/><use transform="matrix(0.049382716049382706,0,0,0.049382716049382706,21.728395061728392,0)" xlink:href="#aa"/><use transform="matrix(0.049382716049382706,0,0,0.049382716049382706,25.629629629629626,0)" xlink:href="#O"/><use transform="matrix(0.049382716049382706,0,0,0.049382716049382706,35.50617283950616,0)" xlink:href="#ab"/></g><path fill="#3a414a" d="M30-248c87 1 191-15 191 75 0 78-77 80-158 76V0H30v-248zm33 125c57 0 124 11 124-50 0-59-68-47-124-48v98" id="ac"/><path fill="#3a414a" d="M100-194c63 0 86 42 84 106H49c0 40 14 67 53 68 26 1 43-12 49-29l28 8c-11 28-37 45-77 45C44 4 14-33 15-96c1-61 26-98 85-98zm52 81c6-60-76-77-97-28-3 7-6 17-6 28h103" id="ad"/><path fill="#3a414a" d="M114-163C36-179 61-72 57 0H25l-1-190h30c1 12-1 29 2 39 6-27 23-49 58-41v29" id="ae"/><path fill="#3a414a" d="M135-143c-3-34-86-38-87 0 15 53 115 12 119 90S17 21 10-45l28-5c4 36 97 45 98 0-10-56-113-15-118-90-4-57 82-63 122-42 12 7 21 19 24 35" id="af"/><path fill="#3a414a" d="M115-194c53 0 69 39 70 98 0 66-23 100-70 100C84 3 66-7 56-30L54 0H23l1-261h32v101c10-23 28-34 59-34zm-8 174c40 0 45-34 45-75 0-40-5-75-45-74-42 0-51 32-51 76 0 43 10 73 51 73" id="ag"/><path fill="#3a414a" d="M177-190C167-65 218 103 67 71c-23-6-38-20-44-43l32-5c15 47 100 32 89-28v-30C133-14 115 1 83 1 29 1 15-40 15-95c0-56 16-97 71-98 29-1 48 16 59 35 1-10 0-23 2-32h30zM94-22c36 0 50-32 50-73 0-42-14-75-50-75-39 0-46 34-46 75s6 73 46 73" id="ah"/><g id="q"><use transform="matrix(0.049382716049382706,0,0,0.049382716049382706,0,0)" xlink:href="#ac"/><use transform="matrix(0.049382716049382706,0,0,0.049382716049382706,11.85185185185185,0)" xlink:href="#ad"/><use transform="matrix(0.049382716049382706,0,0,0.049382716049382706,21.728395061728392,0)" xlink:href="#ab"/><use transform="matrix(0.049382716049382706,0,0,0.049382716049382706,26.666666666666668,0)" xlink:href="#ad"/><use transform="matrix(0.049382716049382706,0,0,0.049382716049382706,36.5432098765432,0)" xlink:href="#ae"/><use transform="matrix(0.049382716049382706,0,0,0.049382716049382706,42.419753086419746,0)" xlink:href="#af"/><use transform="matrix(0.049382716049382706,0,0,0.049382716049382706,51.30864197530863,0)" xlink:href="#ag"/><use transform="matrix(0.049382716049382706,0,0,0.049382716049382706,61.185185185185176,0)" xlink:href="#P"/><use transform="matrix(0.049382716049382706,0,0,0.049382716049382706,71.06172839506172,0)" xlink:href="#ae"/><use transform="matrix(0.049382716049382706,0,0,0.049382716049382706,76.93827160493827,0)" xlink:href="#ah"/></g><filter id="o" filterUnits="objectBoundingBox" x="-.06" y="-.04" width="1.13" height="1.21"><feOffset result="offOut" in="SourceAlpha" dy="6"/><feGaussianBlur result="blurOut" in="offOut" stdDeviation="5"/><feColorMatrix result="colorOut" in="blurOut" values="0 0 0 0 0 0 0 0 0 0 0 0 0 0 0 0 0 0 0.5019607843137255 0"/><feBlend in="SourceGraphic" in2="colorOut"/></filter><path fill="#3a414a" d="M101-251c82-7 93 87 43 132L82-64C71-53 59-42 53-27h129V0H18c2-99 128-94 128-182 0-28-16-43-45-43s-46 15-49 41l-32-3c6-41 34-60 81-64" id="ai"/><path fill="#3a414a" d="M134-131c28 9 52 24 51 62-1 50-34 73-85 73S17-19 16-69c0-36 21-54 49-61-75-25-45-126 34-121 46 3 78 18 79 63 0 33-17 51-44 57zm-34-11c31 1 46-15 46-44 0-28-17-43-47-42-29 0-46 13-45 42 1 28 16 44 46 44zm1 122c35 0 51-18 51-52 0-30-18-46-53-46-33 0-51 17-51 47 0 34 19 51 53 51" id="aj"/><path fill="#3a414a" d="M126-127c33 6 58 20 58 59 0 88-139 92-164 29-3-8-5-16-6-25l32-3c6 27 21 44 54 44 32 0 52-15 52-46 0-38-36-46-79-43v-28c39 1 72-4 72-42 0-27-17-43-46-43-28 0-47 15-49 41l-32-3c6-42 35-63 81-64 48-1 79 21 79 65 0 36-21 52-52 59" id="ak"/><g id="r"><use transform="matrix(0.06172839506172839,0,0,0.06172839506172839,0,0)" xlink:href="#H"/><use transform="matrix(0.06172839506172839,0,0,0.06172839506172839,12.345679012345679,0)" xlink:href="#ai"/><use transform="matrix(0.06172839506172839,0,0,0.06172839506172839,24.691358024691358,0)" xlink:href="#H"/><use transform="matrix(0.06172839506172839,0,0,0.06172839506172839,37.03703703703704,0)" xlink:href="#J"/><use transform="matrix(0.06172839506172839,0,0,0.06172839506172839,43.20987654320988,0)" xlink:href="#aj"/><use transform="matrix(0.06172839506172839,0,0,0.06172839506172839,55.55555555555556,0)" xlink:href="#ak"/></g></defs></g></svg>